<svg width="21" height="18" viewBox="0 0 21 18" fill="none" xmlns="http://www.w3.org/2000/svg">
<path fill-rule="evenodd" clip-rule="evenodd" d="M3.841 1.50927C2.96232 0.788576 1.53769 0.788575 0.659011 1.50927C-0.219671 2.22997 -0.21967 3.39845 0.659012 4.11915L7.0231 9.33899L0.659125 14.5588C-0.219552 15.2795 -0.219552 16.448 0.659125 17.1687C1.5378 17.8894 2.96242 17.8894 3.8411 17.1687L10.2051 11.9489L16.569 17.1685C17.4476 17.8892 18.8723 17.8892 19.7509 17.1685C20.6296 16.4478 20.6296 15.2794 19.7509 14.5587L13.3871 9.33898L19.751 4.11927C20.6296 3.39858 20.6296 2.23009 19.751 1.5094C18.8723 0.788698 17.4477 0.788698 16.569 1.5094L10.2051 6.72911L3.841 1.50927Z" fill="#8D8EAF"/>
</svg>
