<svg width="145" height="251" viewBox="0 0 145 251" fill="none" xmlns="http://www.w3.org/2000/svg">
<path d="M89 197C89 194.111 89.5819 191.25 90.7127 188.581C91.8435 185.912 93.5008 183.487 95.5901 181.443C97.6794 179.401 100.16 177.78 102.89 176.675C105.619 175.569 108.545 175 111.5 175C114.455 175 117.381 175.569 120.11 176.675C122.84 177.78 125.321 179.401 127.41 181.443C129.499 183.487 131.157 185.912 132.287 188.581C133.418 191.25 134 194.111 134 197L89 197Z" fill="#F063B8"/>
<path d="M55 108C60.9095 108 66.7611 109.151 72.2208 111.387C77.6805 113.624 82.6412 116.902 86.8198 121.034C90.9985 125.166 94.3131 130.072 96.5746 135.471C98.836 140.869 100 146.656 100 152.5C100 158.344 98.836 164.131 96.5746 169.529C94.3131 174.928 90.9985 179.834 86.8198 183.966C82.6412 188.098 77.6805 191.376 72.2208 193.613C66.7611 195.849 60.9095 197 55 197L55 108Z" fill="#75CBB3"/>
<path d="M145 206C145 211.909 143.836 217.761 141.575 223.221C139.313 228.68 135.998 233.641 131.82 237.819C127.641 241.998 122.68 245.313 117.221 247.575C111.761 249.836 105.909 251 100 251C94.0905 251 88.2389 249.836 82.7792 247.575C77.3195 245.313 72.3588 241.998 68.1802 237.819C64.0015 233.641 60.6869 228.68 58.4254 223.221C56.164 217.761 55 211.909 55 206L145 206Z" fill="#9C69E2"/>
<path d="M145 152C139.091 152 133.239 150.849 127.779 148.613C122.32 146.376 117.359 143.098 113.18 138.966C109.002 134.834 105.687 129.928 103.425 124.529C101.164 119.131 100 113.344 100 107.5C100 101.656 101.164 95.8695 103.425 90.4707C105.687 85.072 109.002 80.1663 113.18 76.034C117.359 71.9018 122.32 68.6239 127.779 66.3873C133.239 64.1508 139.091 63 145 63L145 152Z" fill="#9C69E2"/>
<path d="M100 76.5C100 88.9263 89.9264 99 77.5 99L55 99L55 54L77.5 54C89.9264 54 100 64.0737 100 76.5Z" fill="#75CBB3"/>
<path d="M45 90C39.0906 90 33.2388 88.8363 27.7794 86.5746C22.32 84.3129 17.3592 80.9982 13.1805 76.8195C9.0018 72.6408 5.6871 67.68 3.4254 62.2206C1.16371 56.7612 1.58938e-06 50.9094 1.84768e-06 45C2.10599e-06 39.0906 1.16371 33.2388 3.42541 27.7794C5.68711 22.32 9.0018 17.3592 13.1805 13.1805C17.3592 9.0018 22.32 5.6871 27.7794 3.4254C33.2388 1.1637 39.0906 -2.58308e-07 45 0L45 90Z" fill="#9C69E2"/>
<path d="M45 197L1.84768e-06 197L3.8147e-06 152C5.9094 152 11.7612 153.164 17.2206 155.425C22.68 157.687 27.6408 161.002 31.8195 165.181C35.9982 169.359 39.3129 174.32 41.5746 179.779C43.8363 185.239 45 191.091 45 197Z" fill="#F063B8"/>
<path d="M22.5 99C34.9263 99 45 108.85 45 121L45 143L1.8914e-06 143L2.85305e-06 121C3.38415e-06 108.85 10.0737 99 22.5 99Z" fill="#FFC84D"/>
</svg>
