<svg width="145" height="278" viewBox="0 0 145 278" fill="none" xmlns="http://www.w3.org/2000/svg">
<path d="M100 134C100 131.111 100.582 128.25 101.713 125.581C102.843 122.912 104.501 120.487 106.59 118.443C108.679 116.401 111.16 114.78 113.89 113.675C116.619 112.569 119.545 112 122.5 112C125.455 112 128.381 112.569 131.11 113.675C133.84 114.78 136.321 116.401 138.41 118.443C140.499 120.487 142.157 122.912 143.287 125.581C144.418 128.25 145 131.111 145 134L100 134Z" fill="#F063B8"/>
<path d="M55 189C60.9095 189 66.7611 190.151 72.2208 192.387C77.6805 194.624 82.6412 197.902 86.8198 202.034C90.9985 206.166 94.3131 211.072 96.5746 216.471C98.836 221.869 100 227.656 100 233.5C100 239.344 98.836 245.131 96.5746 250.529C94.3131 255.928 90.9985 260.834 86.8198 264.966C82.6412 269.098 77.6805 272.376 72.2208 274.613C66.7611 276.849 60.9095 278 55 278L55 189Z" fill="#75CBB3"/>
<path d="M145 143C145 148.909 143.836 154.761 141.575 160.221C139.313 165.68 135.998 170.641 131.82 174.819C127.641 178.998 122.68 182.313 117.221 184.575C111.761 186.836 105.909 188 100 188C94.0905 188 88.2389 186.836 82.7792 184.575C77.3195 182.313 72.3588 178.998 68.1802 174.819C64.0015 170.641 60.6869 165.68 58.4254 160.221C56.164 154.761 55 148.909 55 143L145 143Z" fill="#9C69E2"/>
<path d="M145 89C139.091 89 133.239 87.8492 127.779 85.6127C122.32 83.3761 117.359 80.0982 113.18 75.9659C109.002 71.8337 105.687 66.928 103.425 61.5293C101.164 56.1305 100 50.3437 100 44.5C100 38.6563 101.164 32.8695 103.425 27.4707C105.687 22.072 109.002 17.1663 113.18 13.034C117.359 8.90178 122.32 5.62391 127.779 3.38734C133.239 1.15077 139.091 -2.58312e-07 145 0L145 89Z" fill="#9C69E2"/>
<path d="M100 93.5C100 105.926 89.9264 116 77.5 116L55 116L55 71L77.5 71C89.9264 71 100 81.0737 100 93.5Z" fill="#75CBB3"/>
<path d="M45 234C39.0906 234 33.2388 232.836 27.7794 230.575C22.32 228.313 17.3592 224.998 13.1805 220.82C9.0018 216.641 5.6871 211.68 3.4254 206.221C1.16371 200.761 1.58938e-06 194.909 1.84768e-06 189C2.10599e-06 183.091 1.16371 177.239 3.42541 171.779C5.68711 166.32 9.0018 161.359 13.1805 157.18C17.3592 153.002 22.32 149.687 27.7794 147.425C33.2388 145.164 39.0906 144 45 144L45 234Z" fill="#9C69E2"/>
<path d="M45 134L1.84768e-06 134L3.8147e-06 89C5.9094 89 11.7612 90.1637 17.2206 92.4254C22.68 94.6871 27.6408 98.0018 31.8195 102.181C35.9982 106.359 39.3129 111.32 41.5746 116.779C43.8363 122.239 45 128.091 45 134Z" fill="#F063B8"/>
<path d="M22.5 36C34.9263 36 45 45.8498 45 58L45 80L1.8914e-06 80L2.85305e-06 58C3.38415e-06 45.8498 10.0737 36 22.5 36Z" fill="#FFC84D"/>
</svg>
